<?xml version="1.0" encoding="UTF-8"?>
<svg width="512" height="512" viewBox="0 0 512 512" fill="none" xmlns="http://www.w3.org/2000/svg">
    <rect width="512" height="512" rx="100" fill="#714B67"/> <path d="M120 160C120 137.909 137.909 120 160 120H352C374.091 120 392 137.909 392 160V352C392 374.091 374.091 392 352 392H160C137.909 392 120 374.091 120 352V160Z" fill="white" fill-opacity="0.2"/>
    <path d="M140 180H372V332C372 343.046 363.046 352 352 352H160C148.954 352 140 343.046 140 332V180Z" fill="white"/>
    <path d="M140 180L256 270L372 180" stroke="#714B67" stroke-width="24" stroke-linecap="round" stroke-linejoin="round"/>
    <rect x="200" y="290" width="112" height="12" rx="6" fill="#714B67" fill-opacity="0.3"/>
</svg>
